# xmcd CD database file
#
# Track frame offsets:
#	150
#	10576
#	23776
#	35230
#	49430
#	61067
#	69703
#	80343
#	91141
#	108651
#	123287
#	133782
#	146174
#	160149
#	166898
#	179267
#	190802
#	202695
#	214399
#	222931
#	235204
#	248731
#
# Disc length: 4408 seconds
#
# Revision: 3
# Processed by: cddbd v1.4PL0 Copyright (c) Steve Scherf et al.
# Submitted via: CDex 1.40Beta9
#
DISCID=39113616
DTITLE=Sleepy John Estes - Goin' To Brownsville
DYEAR=1998
DGENRE=Blues
TTITLE0=Run Around
TTITLE1=Lost My Eyesight
TTITLE2=It Was A Dream
TTITLE3=Try Him And See
TTITLE4=Divin' Duck
TTITLE5=Street Car Blues
TTITLE6=Sloppy Drunk Blues
TTITLE7=I'm Goin' Home
TTITLE8=Floating Bridge
TTITLE9=Sixty-One and Sixty-Two Rats
TTITLE10=Vernita's Blues
TTITLE11=Someday Baby
TTITLE12=Freedom Loan
TTITLE13=Bye and Bye When Morning Comes
TTITLE14=Working Man's Blues
TTITLE15=Bring Me My 38 Pistol
TTITLE16=Married Woman Blues
TTITLE17=Sweet Sugar Mama
TTITLE18=Stop That Thing
TTITLE19=In My Father's House
TTITLE20=Goin' To Brownsville
TTITLE21=Sleepy Join Estes Interviewed by Pete Welding
EXTD=YEAR: 1998 ID3G: 0
EXTT0=
EXTT1=
EXTT2=
EXTT3=
EXTT4=
EXTT5=
EXTT6=
EXTT7=
EXTT8=
EXTT9=
EXTT10=
EXTT11=
EXTT12=
EXTT13=
EXTT14=
EXTT15=
EXTT16=
EXTT17=
EXTT18=
EXTT19=
EXTT20=
EXTT21=
PLAYORDER=
